<?xml version="1.0"?>
<svg xmlns="http://www.w3.org/2000/svg" xmlns:xlink="http://www.w3.org/1999/xlink" version="1.1" id="Capa_1" x="0px" y="0px" viewBox="0 0 512 512" style="enable-background:new 0 0 512 512;" xml:space="preserve" width="512px" height="512px" class=""><g><circle style="fill:#4A2342" cx="256" cy="256" r="256" data-original="#00EFD1" class="" data-old_color="#00EFD1"/><path style="fill:#4A2342" d="M501.518,328.673L214.784,41.938l-90.157,90.157l64.989,64.988L67.365,319.335  c-7.03,7.029-7.03,18.426,0,25.456l166.657,166.261C241.268,511.667,248.594,512,256,512  C372.138,512,470.195,434.656,501.518,328.673z" data-original="#00AD95" class="" data-old_color="#00AD95"/><rect x="229.32" y="331.51" style="fill:#FFFFFF" width="164.43" height="27.789" data-original="#A17852" class="" data-old_color="#A17852"/><rect x="311.54" y="331.51" style="fill:#FFFFFF" width="82.21" height="27.795" data-original="#8A6746" class="" data-old_color="#8A6746"/><rect x="207.69" y="357.08" style="fill:#FFFFFF" width="207.69" height="30.898" data-original="#715539" class="" data-old_color="#715539"/><rect x="311.54" y="357.08" style="fill:#FFFFFF" width="103.84" height="30.896" data-original="#5A422D" class="" data-old_color="#5A422D"/><path style="fill:#FFFFFF" d="M67.364,319.334L201.82,184.878l27.693,27.693L95.058,347.028c-7.029,7.029-18.426,7.029-25.456,0  l-2.237-2.237C60.335,337.761,60.335,326.364,67.364,319.334z" data-original="#715538" class="" data-old_color="#715538"/><path style="fill:#FFFFFF" d="M229.518,212.573L96.183,345.908c-7.654,7.654-20.047,7.646-27.693,0l147.182-147.182  L229.518,212.573z" data-original="#5A422D" class="" data-old_color="#5A422D"/><polygon style="fill:#FFFFFF" points="254.964,262.433 282.297,289.765 372.454,199.608 345.121,172.276 335.534,181.863   232.529,78.858 242.116,69.271 214.784,41.938 124.627,132.095 151.959,159.428 161.546,149.841 264.551,252.846 " data-original="#A17852" class="" data-old_color="#A17852"/><polygon style="fill:#FFFFFF" points="372.453,199.611 282.296,289.767 254.965,262.436 264.55,252.851 213.048,201.349   284.035,130.362 335.537,181.864 345.122,172.279 " data-original="#715538" class="" data-old_color="#715538"/><rect x="242.791" y="200.307" transform="matrix(0.7071 -0.7071 0.7071 0.7071 -62.8875 268.7661)" style="fill:#FFFFFF" width="100.389" height="19.976" data-original="#FFCF00" class="" data-old_color="#FFCF00"/><rect x="153.905" y="111.427" transform="matrix(0.7071 -0.7071 0.7071 0.7071 -26.074 179.882)" style="fill:#FFFFFF" width="100.389" height="19.976" data-original="#FFE670" class="active-path" data-old_color="#FFE670"/></g> </svg>
