<?xml version="1.0"?>
<svg xmlns="http://www.w3.org/2000/svg" xmlns:xlink="http://www.w3.org/1999/xlink" version="1.1" id="Capa_1" x="0px" y="0px" viewBox="0 0 512 512" style="enable-background:new 0 0 512 512;" xml:space="preserve" width="512px" height="512px" class=""><g><g id="XMLID_502_">
	<g id="XMLID_194_">
		<g id="XMLID_195_">
			<g id="XMLID_196_">
				<g id="XMLID_197_">
					<g id="XMLID_198_">
						<g id="XMLID_199_">
							<g id="XMLID_200_">
								<g id="XMLID_201_">
									<g id="XMLID_202_">
										<g id="XMLID_203_">
											<g id="XMLID_204_">
												<g id="XMLID_205_">
													<g id="XMLID_206_">
														<circle id="XMLID_207_" style="fill:#FFFFFF" cx="256" cy="256" r="256" data-original="#9331B2" class="active-path" data-old_color="#4A2342"/>
													</g>
												</g>
											</g>
										</g>
									</g>
								</g>
							</g>
						</g>
					</g>
				</g>
			</g>
		</g>
	</g>
	<g id="XMLID_475_">
		<path id="XMLID_530_" style="fill:#FFFFFF" d="M512,256c0-7.126-0.305-14.18-0.876-21.159l-55.981-55.986l-11.165,11.187    l-28.379-28.296c-6.574-7.396-16.158-12.056-26.832-12.056c-19.822,0-35.891,16.069-35.891,35.891    c0,9.654,3.821,18.406,10.026,24.852l7.925,7.939c-2.157,0.68-4.199,1.641-6.074,2.858l-42.365-42.375l-11.182,11.187    l-28.446-28.371c-6.572-7.352-16.128-11.981-26.765-11.981c-19.822,0-35.891,16.069-35.891,35.891    c0,9.299,3.545,17.761,9.35,24.131l8.6,8.66c-2.158,0.68-4.199,1.642-6.074,2.858l-42.365-42.375l-5.869,5.876l-5.303,5.309    l-28.886-28.854c-6.555-7.07-15.921-11.495-26.323-11.495c-19.822,0-35.891,16.069-35.891,35.891    c0,10.277,4.33,19.532,11.256,26.071l6.695,6.72c-2.158,0.68-4.199,1.641-6.074,2.858l-42.365-42.375L41,194.727l46.53,46.629    L72.813,313l20.094,20.167v29.143l149.318,149.319C246.787,511.871,251.378,512,256,512C397.385,512,512,397.385,512,256z" data-original="#681F7B" class="" data-old_color="#4A2342"/>
		<g id="XMLID_225_">
			<path id="XMLID_25_" style="fill:#4A2342" d="M205.467,194.729l-15.857-15.874l-42.319,42.401     c-2.49-1.624-5.277-2.798-8.239-3.455c11.888-5.848,20.072-18.076,20.072-32.219c0-19.822-16.069-35.891-35.891-35.891     c-19.822,0-35.891,16.069-35.891,35.891c0,14.144,8.184,26.372,20.072,32.219c-2.963,0.658-5.75,1.832-8.24,3.456l-42.32-42.402     L41,194.727l46.53,46.629L72.813,313h20.094v49.311h23.669V313h13.314v49.311h23.669V313h20.094l-14.717-71.645L205.467,194.729z     " data-original="#FFFFFF" class="" data-old_color="#FFFFFF"/>
			<path id="XMLID_65_" style="fill:#4A2342" d="M471,194.729l-15.857-15.874l-42.319,42.401c-2.49-1.624-5.277-2.798-8.239-3.455     c11.888-5.848,20.072-18.076,20.072-32.219c0-19.822-16.069-35.891-35.891-35.891c-19.822,0-35.891,16.069-35.891,35.891     c0,14.144,8.184,26.372,20.072,32.219c-2.962,0.658-5.75,1.832-8.24,3.456l-42.32-42.402l-15.854,15.872l46.53,46.629     L338.346,313h20.094v49.311h23.669V313h13.314v49.311h23.669V313h20.094l-14.716-71.645L471,194.729z" data-original="#FFF5CB" class="" data-old_color="#FFFFFF"/>
			<path id="XMLID_1136_" style="fill:#4A2342" d="M291.698,241.355l46.53-46.625l-15.857-15.874l-42.319,42.401     c-2.49-1.624-5.277-2.798-8.239-3.455c11.888-5.848,20.072-18.076,20.072-32.219c0-19.822-16.069-35.891-35.891-35.891     c-19.822,0-35.891,16.069-35.891,35.891c0,14.144,8.184,26.372,20.072,32.219c-2.963,0.658-5.75,1.832-8.24,3.456l-42.32-42.402     l-15.854,15.872l46.53,46.629L205.574,313h20.094v49.311h23.669V313h13.314v49.311h23.669V313h20.094L291.698,241.355z" data-original="#FFB1D6" class="" data-old_color="#FFFFFF"/>
			<path id="XMLID_1143_" style="fill:#4A2342" d="M291.7,241.35L306.41,313h-20.09v49.31h-23.67V313H256V149.69     c19.83,0.01,35.89,16.07,35.89,35.89c0,14.14-8.19,26.37-20.08,32.22c2.97,0.66,5.75,1.83,8.24,3.46l42.32-42.41l15.86,15.88     L291.7,241.35z" data-original="#FF90C2" class="" data-old_color="#FFFFFF"/>
		</g>
	</g>
</g></g> </svg>
