<?xml version="1.0"?>
<svg xmlns="http://www.w3.org/2000/svg" xmlns:xlink="http://www.w3.org/1999/xlink" version="1.1" id="Layer_1" x="0px" y="0px" viewBox="0 0 509.287 509.287" style="enable-background:new 0 0 509.287 509.287;" xml:space="preserve" width="512px" height="512px" class=""><g><circle style="fill:#FFFFFF" cx="254.644" cy="254.644" r="254.644" data-original="#6EB1E1" class="active-path" data-old_color="#4A2342"/><rect x="240.064" y="102.739" style="fill:#4A2342" width="29.16" height="325.849" data-original="#DEDEDF" class="" data-old_color="#FFFFFF"/><path style="fill:#4A2342" d="M42.384,313.981c-0.678,0-1.356,0-2.374-0.339c-3.391-1.356-5.086-5.425-3.73-8.816l70.527-199.036  c1.017-2.713,3.391-4.408,6.103-4.408c2.713,0,5.086,1.695,6.103,4.408l70.527,199.036c1.356,3.391-0.339,7.46-3.73,8.816  s-7.121-0.339-8.477-4.069l-64.424-182.082L48.487,309.234C47.47,312.286,45.097,313.981,42.384,313.981z" data-original="#646B79" class="" data-old_color="#FFFFFF"/><path style="fill:#4A2342" d="M35.942,308.217c3.052,36.62,36.281,65.441,76.97,65.441s73.918-28.821,76.97-65.441H35.942z" data-original="#FBD303" class="" data-old_color="#FFFFFF"/><path style="fill:#4A2342" d="M325.849,313.981c-0.678,0-1.356,0-2.374-0.339c-3.391-1.356-5.086-5.425-3.73-8.816l70.527-199.036  c1.017-2.713,3.391-4.408,6.103-4.408s5.086,1.695,6.103,4.408l70.527,199.036c1.356,3.391-0.339,7.46-3.73,8.816  s-7.121-0.339-8.477-4.069L396.376,127.83l-64.424,181.743C330.935,312.286,328.562,313.981,325.849,313.981z" data-original="#646B79" class="" data-old_color="#FFFFFF"/><path style="fill:#4A2342" d="M319.407,308.217c3.052,36.62,36.281,65.441,76.97,65.441s73.918-28.821,76.97-65.441H319.407z" data-original="#FBD303" class="" data-old_color="#FFFFFF"/><g>
	<path style="fill:#4A2342" d="M391.968,387.899H117.319c-33.907,0-61.372,27.465-61.372,61.372l0,0h397.732l0,0   C453.34,415.364,425.875,387.899,391.968,387.899z" data-original="#FCFCFD" class="" data-old_color="#FFFFFF"/>
	<path style="fill:#4A2342" d="M403.497,87.82H105.791c-7.46,0-13.563,6.103-13.563,13.563s6.103,13.563,13.563,13.563h297.706   c7.46,0,13.563-6.103,13.563-13.563S410.956,87.82,403.497,87.82z" data-original="#FCFCFD" class="" data-old_color="#FFFFFF"/>
	<circle style="fill:#4A2342" cx="254.644" cy="101.383" r="48.148" data-original="#FCFCFD" class="" data-old_color="#FFFFFF"/>
</g><circle style="fill:#FFFFFF" cx="254.644" cy="101.383" r="22.04" data-original="#6EB1E1" class="active-path" data-old_color="#4A2342"/></g> </svg>
